<svg width="1440" height="534" viewBox="0 0 1440 534" fill="none" xmlns="http://www.w3.org/2000/svg">
<path fill-rule="evenodd" clip-rule="evenodd" d="M895.332 0.490909C847.385 0.624436 833.905 0.838476 833.399 1.476C832.327 2.8296 831.228 40.4843 830.617 96.8727C829.952 158.236 828.588 245.674 828.29 246.01C828.179 246.136 826.862 246.032 825.363 245.779L822.638 245.318L823.114 227.119L823.591 208.92L818.759 204.184L813.927 199.446L799.2 199.575C791.1 199.646 775.342 200.108 764.182 200.602C753.022 201.096 741.914 201.336 739.498 201.135C735.143 200.773 735.099 200.786 734.294 202.658C733.848 203.696 732.98 205.288 732.368 206.195C731.754 207.102 731.053 209.311 730.808 211.104C730.093 216.34 729.888 216.765 728.32 216.267C727.554 216.024 719.698 215.748 710.863 215.653C691.222 215.443 668.47 214.826 663.987 214.381C661.863 214.171 660.305 214.344 659.665 214.862C659.114 215.308 657.017 218.824 655.004 222.677C652.245 227.958 651.235 230.655 650.897 233.641C650.476 237.36 650.345 237.601 648.734 237.606C647.79 237.609 645.472 237.797 643.582 238.024L640.145 238.437V219.648C640.145 207.66 639.894 200.39 639.452 199.562C638.819 198.381 638.165 198.281 632.088 198.44C628.419 198.536 620.571 198.524 614.646 198.414C607.338 198.277 600.391 198.598 593.046 199.409L582.218 200.604L576.681 206.502L571.143 212.4L571.261 233.836L571.379 255.273H566.62H561.862L561.071 243.655C560.636 237.264 559.929 220.181 559.5 205.691C558.984 188.247 558.488 179.337 558.033 179.321C545.911 178.877 529.117 178.93 524.618 179.427C517.237 180.242 509.752 180.632 496.8 180.879C485.908 181.086 483.985 181.411 483.4 183.142C483.193 183.754 480.114 187.313 476.557 191.052L470.091 197.849L471.022 210.361C471.534 217.242 472.225 228.469 472.558 235.309C473.116 246.77 474.057 259.498 474.841 266.189C475.14 268.74 475.043 268.948 473.381 269.305C472.401 269.516 467.55 269.814 462.601 269.968C457.652 270.122 453.272 270.452 452.869 270.702C452.07 271.196 452.555 279.943 453.61 284.073C453.933 285.333 454.484 288.715 454.836 291.589C455.535 297.31 455.247 297.979 452.322 297.406C451.405 297.226 448.987 297.344 446.949 297.668L443.244 298.256L442.805 292.965C442.562 290.054 442.07 285.611 441.711 283.091C441.351 280.571 441.081 274.68 441.109 270C441.137 265.32 440.725 257.22 440.193 252C439.661 246.78 439.22 239.949 439.213 236.819C439.203 232.231 438.934 230.678 437.826 228.801L436.452 226.473H427.423C417.144 226.473 417.6 226.742 417.6 220.659C417.6 218.601 417.247 216.563 416.815 216.131C416.383 215.699 414.763 215.345 413.215 215.345C410.941 215.345 410.4 215.119 410.4 214.167C410.4 212.157 408.972 211.418 405.086 211.418C400.363 211.418 399.273 211.844 399.273 213.688C399.273 215.021 398.876 215.201 395.182 215.55C391.797 215.87 390.946 215.744 390.25 214.822C389.57 213.923 387.563 213.583 379.777 213.055L370.145 212.4L369.694 206.182C369.446 202.762 368.92 193.925 368.524 186.545C367.555 168.463 367.242 165.243 366.337 164.072C365.672 163.212 361.299 163.011 335.127 162.635C291.551 162.009 296.267 161.593 288.736 166.719C285.271 169.078 282.205 171.403 281.922 171.887C281.188 173.143 282.533 201.451 283.66 208.473C284.18 211.713 284.792 219.813 285.02 226.473C285.49 240.25 287.048 259.749 288.103 265.091C289.257 270.933 289.794 285.278 288.845 284.912C288.41 284.745 287.084 284.913 285.9 285.287C284.715 285.66 281.435 286.049 278.611 286.151L273.477 286.336L272.502 284.059C271.839 282.512 271.445 278.74 271.272 272.291C270.996 262.003 270.277 252.712 268.687 238.909C268.127 234.049 267.514 226.98 267.324 223.2C266.858 213.942 266.811 213.788 264.129 212.735C261.827 211.832 261.818 211.813 261.818 207.732C261.818 202.024 260.637 187.597 259.817 183.273C259.44 181.293 258.927 176.875 258.676 173.455L258.218 167.236L254.618 167.306C252.638 167.344 249.199 167.492 246.977 167.635C242.97 167.892 242.932 167.878 242.559 166.011C242.351 164.975 242.182 162.732 242.182 161.025C242.182 156.6 241.017 150.992 239.93 150.18C239.405 149.787 238.8 147.66 238.534 145.271C238.277 142.952 237.74 140.838 237.342 140.573C236.118 139.761 231.544 140.022 230.452 140.967C229.097 142.138 225.818 142.913 225.818 142.061C225.818 141.701 225.118 141.231 224.263 141.017C222.823 140.655 222.686 140.24 222.405 135.406C222.199 131.838 221.775 129.859 221.066 129.149C220.232 128.315 217.895 128.047 209.163 127.782L198.297 127.452L195.019 129.671C191.466 132.078 190.871 133.321 191.223 137.603L191.455 140.4L187.753 140.422L184.051 140.444L183.335 136.877C182.941 134.914 182.6 130.339 182.578 126.709C182.557 123.079 181.591 111.79 180.431 101.622C178.747 86.8379 178.095 82.906 177.182 81.9923C176.221 81.0321 175.046 80.8842 169.786 81.0609C164.589 81.2356 163.321 81.0811 162.287 80.1451C160.498 78.5265 145.525 77.6749 130.255 78.3236C123.595 78.607 116.772 78.7477 115.092 78.6365C113.016 78.4997 111.025 78.8884 108.874 79.8513C103.383 82.3084 87.5546 88.1601 73.9636 92.7576C67.1302 95.0688 67.2192 94.9366 68.0524 101.51C69.2339 110.835 71.2708 125.779 71.9699 130.255C72.3358 132.595 72.8038 138.78 73.0093 144C73.2541 150.218 74.1757 158.23 75.6812 167.236C76.9451 174.796 78.4217 183.633 78.9617 186.873C79.5017 190.113 80.1039 194.118 80.3003 195.775L80.657 198.787L73.5467 201.261C69.6358 202.622 65.2582 204.276 63.8182 204.937C61.4245 206.036 59.8732 206.104 45.7409 205.731L30.2819 205.324L26.7945 207.062C24.876 208.018 22.6695 208.8 21.8906 208.8C20.3655 208.8 9.45294 213.628 9.01898 214.495C8.87498 214.783 8.92211 217.596 9.12436 220.746L9.49091 226.474L6.21818 226.593C4.41818 226.659 2.28305 226.677 1.47273 226.633L0 226.553V864.041V1501.53H720H1440V783.959V66.3906L1433.81 65.5593C1430.3 65.088 1425.93 64.9197 1423.72 65.1698L1419.82 65.6104L1420.18 59.1218C1420.6 51.5048 1420.03 50.4 1415.69 50.4H1413.07L1413.53 42.9454C1413.78 38.8453 1413.78 33.8223 1413.52 31.7821C1412.89 26.6793 1411.88 26.3226 1402.36 27.8175C1398.4 28.4394 1392.76 29.1024 1389.81 29.2909C1383.62 29.6869 1384.05 29.0821 1383.39 38.2909C1383.16 41.5309 1382.42 47.8636 1381.75 52.3636C1380.56 60.3681 1379.09 76.4483 1379.12 81.3273L1379.13 83.7818H1376.31C1371.74 83.7818 1371.09 82.9014 1370.75 76.1812C1370.59 72.9811 1370.14 69.9604 1369.74 69.4676C1369.03 68.5813 1364.69 68.709 1359 69.7831L1356.87 70.185V61.3544C1356.87 54.1126 1356.69 52.3695 1355.84 51.6672C1354.98 50.9557 1354.46 50.995 1352.73 51.8996C1351.59 52.4985 1349.18 53.2918 1347.38 53.6629C1340.7 55.0394 1341.16 54.722 1341.16 57.9397C1341.16 60.4231 1340.97 60.8727 1339.87 60.8727C1338.67 60.8727 1338.59 60.4564 1338.73 54.4909L1338.87 48.1091L1332 48.0816C1328.22 48.0665 1322.19 47.5566 1318.6 46.9473C1315.02 46.3385 1311.83 46.0904 1311.52 46.3955C1311.01 46.906 1310.1 69.2372 1310.33 75.8219C1310.39 77.7862 1310.18 78.5801 1309.63 78.3968C1308.48 78.0139 1307.7 74.6614 1308.14 71.9483C1308.62 68.9165 1308.07 68.5034 1301.24 66.7866C1294.41 65.0723 1290.11 63.504 1290.11 62.7323C1290.11 62.405 1287.78 62.3454 1284.78 62.5955L1279.46 63.0393L1279.91 59.4177L1280.36 55.7961L1277.24 55.3281C1275.53 55.0709 1272.64 54.3175 1270.83 53.6544C1269.01 52.9914 1266.2 52.1045 1264.58 51.6842C1262.96 51.2634 1261.43 50.5898 1261.18 50.1873C1260.93 49.7841 1259.46 49.5262 1257.91 49.6132C1256.36 49.7003 1249.79 49.8855 1243.31 50.0249C1236.83 50.1644 1231.18 50.3057 1230.75 50.3391C1230.31 50.3738 1229.62 52.5175 1229.15 55.332L1228.32 60.2633L1222.08 59.8595C1218.65 59.637 1215.63 59.3208 1215.36 59.1572C1215.1 58.9929 1212.81 58.752 1210.27 58.6211C1204.74 58.3351 1205.27 57.0914 1204.34 72.3273C1203.97 78.4473 1203.38 85.6636 1203.04 88.3636C1202.7 91.0636 1201.96 98.6911 1201.4 105.313C1200.24 118.914 1199.76 121.862 1198.62 122.243C1198.05 122.433 1197.82 121.37 1197.82 118.527C1197.82 116.337 1197.6 114.516 1197.33 114.48C1197.06 114.444 1194.33 114.343 1191.27 114.253C1188.21 114.164 1184.46 113.873 1182.93 113.607C1180.18 113.127 1180.15 113.09 1180.15 110.397C1180.15 108.899 1180.89 98.3945 1181.78 87.0545C1182.68 75.7145 1183.41 65.8322 1183.41 65.0939C1183.42 64.1356 1182.53 63.3253 1180.31 62.2624C1174.64 59.5453 1172.27 57.5993 1172.67 55.9918C1173.34 53.3101 1162.78 46.5002 1160.19 47.9487C1159.48 48.3447 1156.86 48.454 1153.7 48.2178C1150.78 48.0004 1147.3 48.0744 1145.97 48.3833C1144.14 48.8029 1143.34 48.7152 1142.78 48.0357C1142.36 47.5363 1140.9 47.1273 1139.52 47.1273C1138.15 47.1273 1136.88 46.8923 1136.7 46.6043C1136.52 46.317 1128.69 46.0322 1119.29 45.972C1098.78 45.8404 1099.64 45.5204 1099.64 53.3455C1099.64 57.1169 1099.42 58.2545 1098.72 58.2545C1098.22 58.2545 1096.79 59.2684 1095.55 60.5081C1093.14 62.9175 1093.21 62.534 1091.61 82.0224L1091.45 83.863L1088.41 82.2377C1085.51 80.6924 1085.13 80.6485 1080.65 81.3417C1075.4 82.1553 1074.76 82.8464 1074.76 87.7516C1074.76 90.3083 1074.74 90.3273 1072.22 90.3273C1069.62 90.3273 1068.87 91.0545 1068.87 93.5922C1068.87 94.4922 1068.53 94.6957 1067.47 94.4188C1065.43 93.8873 1064.29 95.8483 1064.29 99.8666C1064.29 102.671 1064.07 103.323 1063.03 103.595C1061.75 103.929 1060.98 105.995 1059.91 111.927C1059.49 114.285 1059.09 114.915 1057.91 115.082C1056.15 115.332 1055.45 117.496 1056.07 120.773C1056.45 122.795 1056.31 123.136 1054.89 123.676C1054 124.013 1053.09 124.876 1052.86 125.594C1052.15 127.846 1051.48 140.558 1051.85 144.948C1052.05 147.259 1052.03 151.894 1051.81 155.248C1051.59 158.602 1051.36 160.388 1051.31 159.218C1051.21 157.391 1050.96 157.091 1049.5 157.091H1047.8L1048.02 151.002L1048.25 144.914L1045.23 141.348C1043.56 139.387 1041.71 136.809 1041.1 135.621C1039.83 133.122 1038.7 132.511 1037.01 133.413C1035.92 133.999 1035.84 133.785 1036.04 130.938C1036.24 128.165 1036.06 127.661 1034.4 126.366C1032.81 125.12 1032.5 124.33 1032.22 120.874C1031.89 116.843 1031.89 116.837 1029.93 117.029C1026.6 117.356 1020.9 117.264 1017.99 116.838C1015.6 116.488 1014.99 116.66 1013.57 118.077C1012.67 118.982 1011.93 120.44 1011.93 121.319C1011.93 122.196 1011.49 123.084 1010.95 123.292C1009.71 123.765 1009.69 127.653 1011.27 69.0545C1011.98 42.7745 1012.55 18.9164 1012.54 16.0364L1012.53 10.8L1005.99 5.4L999.448 0L978.034 0.16036C966.255 0.24807 929.04 0.397309 895.332 0.490909Z" fill="#252762"/>
</svg>
