<svg width="1440" height="803" viewBox="0 0 1440 803" fill="none" xmlns="http://www.w3.org/2000/svg">
<path fill-rule="evenodd" clip-rule="evenodd" d="M923.444 2.61818C922.622 5.53549 922.656 11.6659 923.516 15.493C923.825 16.8715 923.842 19.1049 923.552 20.4545C923.263 21.8049 922.838 28.9473 922.609 36.3273C922.38 43.7073 921.923 54.3109 921.595 59.8909C921.266 65.4709 920.955 84.3218 920.905 101.782C920.854 119.242 920.529 138.093 920.184 143.673C919.838 149.253 919.465 163.833 919.354 176.073C919.242 188.484 918.809 200.788 918.375 203.891C917.796 208.035 917.753 215.269 918.21 232.245C918.553 244.991 918.577 256.098 918.264 257.445C917.956 258.771 917.7 262.653 917.694 266.073C917.688 269.493 917.242 276.12 916.703 280.8C916.163 285.48 915.409 298.44 915.028 309.6C914.647 320.76 914.048 334.162 913.698 339.382C912.831 352.306 912.376 366.744 912.231 385.963C912.164 394.843 911.962 402.244 911.782 402.409C911.602 402.574 909.808 402.565 907.796 402.391L904.137 402.074L903.387 395.109C902.976 391.279 902.452 386.045 902.224 383.478C901.996 380.911 901.563 378.411 901.261 377.923C900.584 376.827 893.345 376.205 887.891 376.773C885.731 376.998 881.156 376.904 877.726 376.564C874.295 376.225 870.171 376.041 868.562 376.155L865.636 376.364L865.222 380.618C864.994 382.958 864.773 388.88 864.731 393.778L864.654 402.685L860.065 403.111C857.541 403.346 852.658 403.205 849.213 402.799C844.682 402.265 842.753 402.258 842.234 402.777C841.806 403.205 841.323 408.417 841.031 415.782C840.763 422.542 840.33 430.208 840.068 432.818L839.594 437.564L832.324 437.577C828.326 437.584 823.14 437.874 820.8 438.221C818.46 438.568 810.952 439.02 804.115 439.226C795.471 439.485 791.559 439.837 791.273 440.381C791.047 440.811 790.522 453.976 790.106 469.636C789.322 499.138 789.068 505.572 788.333 514.545L787.898 519.852L781.994 520.272C778.747 520.502 771.818 520.691 766.597 520.691H757.104L757.5 508.306C757.842 497.595 757.758 495.808 756.88 495.079C755.739 494.132 755.198 494.103 726.218 493.428C692.881 492.652 695.65 492.527 695.006 494.836C694.704 495.916 694.268 500.997 694.036 506.127L693.615 515.455L691.916 515.478C690.982 515.49 688.451 515.974 686.291 516.55C681.101 517.937 638.307 518.68 637.514 517.397C637.245 516.96 636.998 513.178 636.968 508.992C636.849 492.815 636.134 475.879 635.553 475.521C635.209 475.308 634.848 466.239 634.719 454.554C634.48 432.903 633.38 411.78 632.062 403.527C631.288 398.68 631.252 398.616 629.196 398.415C627.662 398.266 626.893 398.567 626.272 399.561C625.431 400.908 623.127 401.45 623.127 400.301C623.127 397.989 616.345 396.441 615.529 398.568C614.913 400.171 613.189 400.375 612.198 398.96C610.888 397.09 605.813 397.079 604.648 398.945C603.785 400.327 600.61 400.764 599.891 399.6C599.168 398.431 597.012 398.908 596.192 400.418C595.752 401.228 594.769 404.283 594.007 407.207L592.621 412.521L590.518 410.643C588.736 409.049 587.86 408.764 584.761 408.764C580.719 408.764 577.597 409.967 575.302 412.409C574.145 413.642 573.729 414.973 573.527 418.1C573.295 421.695 571.266 427.745 570.294 427.745C570.099 427.745 570.125 426.347 570.351 424.636C570.84 420.939 569.383 417.418 566.836 416.146C564.822 415.14 558.873 415.074 555.462 416.021C554.067 416.409 551.775 417.806 550.37 419.126C548.198 421.167 547.753 422.056 547.406 425.051L546.997 428.573L540.062 428.155C536.248 427.925 532.803 427.959 532.407 428.232C532.01 428.505 529.614 435.207 527.083 443.127C518.985 468.456 519.406 466.776 519.555 473.177C519.646 477.085 519.351 480 518.662 482.014C517.962 484.06 517.768 486.044 518.054 488.238C518.393 490.838 518.31 491.328 517.619 490.781C516.548 489.934 509.366 489.188 508.939 489.879C508.459 490.656 496.965 492.074 495.05 491.594C494.125 491.361 492.941 490.744 492.419 490.222C491.751 489.554 490.755 489.398 489.062 489.695C486.198 490.198 482.544 490.158 478.37 489.576C474.664 489.059 473.058 490.315 471.902 494.635C469.848 502.31 464.336 519.68 461.995 525.853C460.547 529.674 458.936 533.978 458.418 535.418C457.493 537.987 457.415 538.036 454.268 538.04C451.603 538.044 450.71 538.376 448.997 540.004C447.863 541.082 446.367 543.068 445.672 544.418C444.445 546.805 444.31 546.873 440.802 546.873C438.2 546.873 437.09 547.146 436.819 547.854C436.529 548.609 435.279 548.836 431.406 548.836C426.022 548.836 424.8 549.405 424.8 551.913C424.8 553.347 424.574 553.418 419.975 553.418H415.15L414.732 544.745C413.561 520.39 413.526 519.983 412.513 518.97C411.826 518.283 411.085 518.14 410.139 518.513C409.382 518.811 400.678 519.07 390.796 519.089L372.828 519.124L371.667 521.707C371.029 523.128 370.5 524.676 370.49 525.147C370.481 525.618 368.893 529.594 366.961 533.983C365.03 538.372 362.965 543.447 362.373 545.26C361.782 547.072 360.711 549.057 359.994 549.671C358.878 550.627 358.672 551.705 358.559 557.175C358.487 560.689 358.493 564.668 358.572 566.018L358.714 568.473H353.794C349.131 568.473 348.872 568.396 348.858 567C348.809 561.914 342.23 555.149 336.59 554.384C330.743 553.59 331.201 554.521 331.195 543.393C331.19 531.57 330.613 524.566 329.627 524.324C329.232 524.227 327.751 523.774 326.334 523.316C323.958 522.547 323.671 522.59 322.629 523.878C322.008 524.645 321.337 525.273 321.14 525.273C320.942 525.273 320.695 522.842 320.59 519.873L320.4 514.473L317.945 514.27C315.838 514.095 315.491 514.257 315.491 515.415C315.491 516.327 315.067 516.764 314.182 516.764C313.309 516.764 312.873 516.327 312.873 515.455C312.873 514.308 312.436 514.145 309.358 514.145C307.425 514.145 303.999 514.735 301.745 515.455C299.492 516.174 297.281 516.764 296.834 516.764C296.243 516.764 295.902 514.207 295.591 507.436C295.354 502.306 294.896 493.985 294.57 488.945C294.244 483.905 293.699 474.837 293.359 468.793C292.882 460.317 292.502 457.542 291.7 456.656C291.129 456.024 290.246 453.9 289.74 451.935C288.855 448.496 288.738 448.364 286.61 448.364H284.4L284.214 440.52C284.112 436.206 283.768 432.415 283.449 432.096C283.112 431.759 281.373 432.372 279.3 433.559C277.337 434.681 275.249 435.6 274.659 435.6C274.07 435.6 273.083 436.189 272.466 436.909C271.57 437.956 270.535 438.218 267.304 438.218C263.479 438.218 263.151 438.345 261.181 440.59C260.035 441.894 258.78 443.661 258.39 444.517C257.604 446.242 258.557 446.14 240.873 446.393C236.013 446.462 231.079 446.736 229.909 447.002L227.782 447.486V444.773C227.782 441.705 226.853 439.527 225.544 439.527C225.059 439.527 224.512 438.954 224.328 438.253C224.021 437.079 223.269 436.964 214.684 436.781L205.372 436.582L203.426 438.8C201.862 440.583 201.525 441.495 201.711 443.448L201.943 445.877L189.213 445.984C175.059 446.102 175.198 446.062 173.112 450.687L171.934 453.3L166.313 453.152C163.221 453.07 158.687 453.255 156.239 453.563C152.162 454.076 151.699 454.294 150.742 456.152C150.168 457.269 147.826 460.926 145.539 464.279C143.253 467.633 141.382 470.73 141.382 471.161C141.382 471.592 140.311 473.534 139.003 475.478C136.678 478.93 136.64 479.083 137.366 482.228C138.346 486.472 138.324 486.655 136.831 486.655C134.825 486.655 132.83 491.734 133.559 494.982C133.873 496.376 134.731 502.363 135.466 508.286C136.202 514.209 137.239 522.147 137.771 525.927C138.303 529.707 139.056 535.893 139.444 539.673C139.831 543.453 140.308 547.594 140.502 548.876L140.855 551.206L138.483 550.93C137.18 550.778 134.866 550.967 133.344 551.35C131.496 551.815 126.876 551.872 119.451 551.519C113.333 551.229 108.033 551.113 107.673 551.261C106.807 551.618 101.323 558.943 99.4431 562.255C98.6256 563.695 97.5266 565.381 97.001 566.002C96.3033 566.825 96.158 567.982 96.463 570.28C96.8708 573.354 96.8112 573.497 93.9449 576.31C92.3302 577.894 90.8588 579.04 90.6748 578.856C89.4829 577.664 82.8956 546.123 80.5091 530.182C80.0777 527.302 79.4847 524.651 79.1908 524.291C78.8681 523.896 73.9872 523.653 66.8612 523.68L55.0649 523.723L51.5834 526.035C49.6682 527.306 47.1109 528.859 45.9 529.485C43.454 530.75 43.4402 530.965 45.2625 539.213L46.1009 543.006L42.8505 545.746C41.0629 547.254 37.9329 550.057 35.8953 551.978L32.1905 555.468L31.0948 551.661C28.9028 544.046 27.4857 538.512 25.4657 529.679C24.23 524.277 23.0236 520.454 22.4548 520.135C21.9325 519.843 20.1273 519.831 18.4431 520.108C16.7596 520.386 11.9212 520.631 7.69091 520.652L0 520.691V804.109V1087.53H720H1440V756.398V425.268L1435.58 424.257C1433.15 423.702 1429.58 423.09 1427.64 422.898C1425.7 422.707 1424 422.438 1423.87 422.303C1423.73 422.167 1424.34 417.666 1425.22 412.301C1429.3 387.446 1429.63 382.466 1427.24 382.023C1426.52 381.889 1424.6 380.833 1422.98 379.674C1419.27 377.02 1411.38 372.531 1403.36 368.508C1399.94 366.797 1395.08 364.006 1392.56 362.308L1387.96 359.219L1378.47 358.71C1368.7 358.185 1356.36 357.91 1321.2 357.434C1290.84 357.024 1266.48 355.709 1259.55 354.11C1258.77 353.928 1257.4 354.056 1256.51 354.394C1254.96 354.984 1254.88 355.299 1254.47 362.74C1254.23 366.993 1253.49 374.155 1252.82 378.655C1252.14 383.155 1251.22 390.742 1250.76 395.516C1250.3 400.29 1249.7 404.561 1249.42 405.007C1249.06 405.587 1245.67 405.883 1237.51 406.045C1227.51 406.244 1225.32 406.092 1219.78 404.81C1216.15 403.972 1213.23 403.595 1212.93 403.928C1212.65 404.248 1211.91 408.338 1211.3 413.018C1209.5 426.699 1209.78 425.674 1207.78 425.904L1206 426.109L1205.53 435.273C1205.27 440.313 1204.63 446.94 1204.1 450C1203.57 453.06 1202.76 458.76 1202.31 462.667L1201.48 469.77L1198.34 469.354L1195.2 468.937L1195.19 471.414C1195.19 472.776 1194.6 478.586 1193.88 484.324C1193.17 490.062 1192.58 496.027 1192.58 497.579C1192.58 499.13 1192.34 500.4 1192.04 500.4C1190.98 500.4 1184.51 481.938 1182.98 474.545L1182.44 471.927L1175.89 471.513C1172.29 471.286 1166 471.065 1161.92 471.022L1154.5 470.945L1154.95 458.673C1155.21 451.923 1155.64 444.633 1155.92 442.473C1156.2 440.313 1156.91 434.569 1157.49 429.709C1158.08 424.849 1158.87 418.664 1159.26 415.964C1159.65 413.264 1160.22 405.753 1160.52 399.273C1160.82 392.793 1161.38 384.987 1161.77 381.927C1162.15 378.867 1162.47 373.713 1162.47 370.473C1162.47 367.233 1162.75 361.489 1163.09 357.709C1163.43 353.929 1163.88 345.387 1164.09 338.727C1164.3 332.067 1164.6 325.293 1164.77 323.673C1164.94 322.053 1165.39 313.658 1165.76 305.018C1166.14 296.378 1167.02 283.271 1167.73 275.891C1168.43 268.511 1169.48 255.845 1170.05 247.745C1170.62 239.645 1171.35 229.336 1171.68 224.836C1172.86 208.74 1173.43 196.747 1173.11 195.051C1172.92 194.104 1173.24 191.507 1173.8 189.282C1175.22 183.681 1175.52 180.651 1176.23 165.273C1176.56 157.893 1177.14 148.467 1177.51 144.327C1178.92 128.422 1179.57 117.224 1179.17 115.591C1178.47 112.716 1173.75 103.24 1170.98 99.1604C1169.53 97.0325 1168.07 94.557 1167.73 93.659C1167.39 92.7616 1164.88 88.0409 1162.16 83.1691C1159.43 78.2967 1155.92 71.5425 1154.35 68.1585C1152.78 64.7745 1150.31 59.9838 1148.87 57.5123C1147.43 55.0407 1144.05 48.8945 1141.36 43.8545C1138.66 38.8145 1134.48 31.3036 1132.06 27.1636C1124.36 13.9896 1119.27 4.93462 1119.27 4.38414C1119.27 4.09025 1118.89 3.33027 1118.43 2.69537C1117.64 1.62191 1115.04 1.52053 1081.61 1.26067C1061.82 1.10685 1042.54 0.781557 1038.76 0.537411C1034.98 0.293266 1007.66 0.0720294 978.037 0.0465021L924.183 0L923.444 2.61818ZM317.902 517.541C317.693 518.063 317.538 517.908 317.506 517.145C317.478 516.455 317.633 516.069 317.85 516.286C318.067 516.504 318.091 517.069 317.902 517.541Z" fill="#010338"/>
</svg>
