<svg width="1440" height="885" viewBox="0 0 1440 885" fill="none" xmlns="http://www.w3.org/2000/svg">
<path fill-rule="evenodd" clip-rule="evenodd" d="M719.718 0.642891C719.163 2.35191 717.887 27.8321 717.965 35.6323C718.026 41.7307 717.831 43.7434 717.123 44.3318C716.616 44.752 716.01 45.8563 715.777 46.7851C715.544 47.7139 714.881 48.9464 714.303 49.5244C713.369 50.4578 713.298 52.4921 713.668 67.703C714.004 81.5382 713.917 84.9693 713.214 85.5519C712.645 86.0244 712.2 88.7048 711.925 93.3128C711.565 99.3555 711.319 100.479 710.189 101.25C709.396 101.791 708.873 102.878 708.873 103.988C708.873 105.961 707.227 106.963 704.5 106.651C702.689 106.444 701.961 107.838 701.38 112.624C700.943 116.234 700.846 116.388 699.03 116.388C696.689 116.388 695.782 117.907 695.782 121.829C695.782 123.687 695.407 125.048 694.742 125.6C693.961 126.248 693.746 127.447 693.876 130.425C693.972 132.604 693.998 136.524 693.934 139.134L693.818 143.879H691.772H689.726L689.915 155.824C690.251 177 690.007 184.461 688.98 184.461C687.415 184.461 687.201 194.997 687.07 278.224C686.953 353.184 686.879 357.915 685.817 357.915C685.196 357.915 684.186 358.873 683.573 360.043C682.642 361.816 682.471 363.94 682.541 372.806C682.62 382.715 682.544 383.443 681.426 383.443C679.94 383.443 679.389 385.854 679.891 390.152L680.255 393.261H676.908C673.788 393.261 673.488 393.405 672.489 395.388C671.899 396.558 670.523 398.458 669.43 399.611C667.492 401.653 667.453 401.82 667.871 406.32L668.3 410.934H665.946H663.593L663.814 400.766C664 392.268 663.875 390.497 663.055 389.986C662.232 389.474 662.102 387.544 662.251 378.064C662.473 363.959 662.088 360.221 660.219 358.353C658.887 357.021 658.772 356.092 658.339 343.188C658.085 335.628 657.601 322.963 657.264 315.043C656.927 307.123 656.81 295.017 657.004 288.141C657.261 279.021 657.151 275.512 656.597 275.17C656.179 274.911 648.753 274.729 640.095 274.765L624.353 274.831L620.995 276.609L617.638 278.388L617.426 291.152C617.309 298.172 617.107 307.892 616.975 312.752C616.844 317.612 616.702 324.922 616.659 328.997L616.582 336.405L611.342 335.948C606.44 335.521 605.942 335.598 603.606 337.143L601.109 338.795L601.406 369.39C601.675 397.204 601.604 400.038 600.633 400.582C600.039 400.914 599.564 401.999 599.564 403.02C599.564 404.032 599.376 406.223 599.148 407.891L598.733 410.921L596.366 410.551C595.065 410.348 592.707 410.476 591.126 410.836C588.668 411.396 588.004 411.309 586.544 410.234C585.16 409.217 583.906 409.009 579.927 409.138L575.018 409.297L574.825 413.329C574.697 415.985 574.327 417.478 573.739 417.704C572.294 418.259 572.075 415.966 571.709 396.384C571.518 386.207 571.08 375.722 570.735 373.086C570.391 370.45 570.109 366.695 570.109 364.741C570.109 362.019 569.879 361.188 569.127 361.188C568.366 361.188 568.145 360.324 568.145 357.341C568.145 353.372 567.12 351.524 565.307 352.22C564.591 352.495 564.339 350.79 564.032 343.612C563.821 338.689 563.338 333.844 562.959 332.846C562.296 331.105 562.137 331.05 558.989 331.467L555.709 331.902V324.968C555.709 318.704 555.583 317.967 554.4 317.334C553.522 316.864 553.08 315.939 553.056 314.529C553.014 311.942 551.454 303.042 550.956 302.544C550.382 301.97 548.493 301.729 544.167 301.675L540.152 301.624L539.694 297.344C539.36 294.225 538.83 292.626 537.739 291.449C536.708 290.337 536.107 288.659 535.812 286.074C535.158 280.362 535.069 280.295 529.272 281.196C525.779 281.739 523.329 281.77 520.878 281.299C517.471 280.645 512.802 280.985 512.218 281.931C512.054 282.196 512.135 285.116 512.399 288.419L512.879 294.424H510.403H507.927V297.985V301.544L504.818 302.002C503.01 302.267 500.476 303.307 498.764 304.486C497.144 305.601 495.719 306.568 495.598 306.634C495.478 306.7 495.133 310.509 494.832 315.098C494.406 321.622 494.061 323.567 493.252 324.02C492.384 324.505 492.218 326.118 492.218 334.057C492.218 340.011 491.972 343.515 491.554 343.515C491.19 343.515 490.297 343.148 489.571 342.697C488.491 342.028 488.146 342.049 487.672 342.81C487.353 343.323 487.258 349.235 487.461 355.948L487.829 368.155L484.624 368.108C482.062 368.07 481.48 368.258 481.724 369.043C481.892 369.583 482.124 379.008 482.242 389.988C482.358 400.968 482.619 412.161 482.82 414.861C483.167 419.495 482.254 433.145 481.518 434.336C481.331 434.639 477.844 434.533 473.77 434.101C469.697 433.669 466.186 433.424 465.969 433.558C465.752 433.692 465.375 437.418 465.133 441.84C464.89 446.261 464.448 452.824 464.149 456.424C463.838 460.176 463.863 464.875 464.207 467.431C464.992 473.263 464.713 473.875 462.383 471.443C457.571 466.423 455.229 462.953 454.909 460.371C454.598 457.859 454.469 457.729 452.21 457.637C450.905 457.584 449.23 457.216 448.489 456.819C444.644 454.761 441.164 456.854 441.164 461.222C441.164 462.695 440.506 464.266 439.2 465.915C437.893 467.565 437.236 469.136 437.236 470.609C437.236 473.378 435.812 475.478 433.655 475.89C432.012 476.204 432 476.174 431.978 471.552C431.941 463.413 430.996 458.257 429.082 455.748C427.334 453.455 425.093 452.794 423.722 454.164C423.244 454.642 422.901 452.455 422.59 446.953C422.345 442.61 421.815 437.515 421.413 435.632C421.011 433.748 420.621 425.726 420.547 417.806C420.473 409.886 420.047 400.314 419.598 396.534C419.151 392.754 418.591 386.863 418.355 383.443C417.956 377.644 417.828 377.21 416.455 377.015C415.109 376.825 414.981 376.456 414.978 372.76C414.976 370.536 414.535 365.803 413.999 362.243C413.462 358.683 413.067 353.97 413.12 351.771C413.225 347.411 412.559 342.54 411.61 340.734C411.279 340.103 410.282 339.588 409.395 339.588H407.782V331.88C407.782 323.362 407.333 322.078 403.7 320.199C402.579 319.619 399.52 317.118 396.901 314.639C394.283 312.161 391.87 310.134 391.539 310.134C391.208 310.134 390.158 308.955 389.205 307.515C387.675 305.204 387.173 304.897 384.917 304.897C381.053 304.897 380.481 305.323 377.556 310.373C374.707 315.291 369.798 321.816 366.938 324.484C365.253 326.055 365.236 326.164 365.236 335.836C365.236 344.855 365.142 345.626 364.002 345.924C363.148 346.148 362.635 347.076 362.337 348.94C362.1 350.421 361.592 352.011 361.208 352.474C360.806 352.959 360.685 354.361 360.922 355.779C361.149 357.134 361.604 362.219 361.932 367.079C362.259 371.939 362.723 378.365 362.962 381.361C363.382 386.612 363.346 386.819 361.94 387.187C360.541 387.552 360.498 387.782 360.874 392.869C361.089 395.784 361.714 402.146 362.263 407.006C362.811 411.866 363.564 423.648 363.936 433.188C364.308 442.728 364.899 451.947 365.251 453.675C366.176 458.213 366.087 458.606 364.091 458.836L362.291 459.043L362.086 468.534C361.962 474.28 362.272 481.252 362.871 486.206C363.416 490.706 364.04 498.459 364.26 503.434C364.479 508.41 364.795 512.836 364.961 513.271C365.191 513.869 362.744 514.058 354.942 514.047C349.263 514.039 342.998 514.097 341.018 514.176C339.038 514.256 335.504 514.237 333.164 514.136C330.824 514.036 326.824 514.218 324.277 514.542C320.668 515.002 319.004 514.916 316.75 514.155L313.855 513.179L313.381 497.565C313.121 488.978 312.566 478.27 312.148 473.77C311.73 469.27 311.174 460.728 310.912 454.788C309.971 433.381 308.817 419.628 307.315 411.915C305.677 403.506 304.733 394.848 304.908 389.847C305.061 385.476 304.147 385.116 294.255 385.655C276.453 386.624 264.313 386.868 256.455 386.414C248.625 385.961 248.136 385.852 247.946 384.525C247.777 383.337 247.333 383.125 245.127 383.179C243.687 383.214 238.091 383.314 232.691 383.403C224.713 383.534 222.382 383.793 220.255 384.786C218.227 385.733 216.787 385.92 213.873 385.616C211.791 385.398 210.107 384.898 210.105 384.496C210.103 384.097 209.599 382.886 208.986 381.806C208.238 380.49 207.862 378.331 207.844 375.261L207.818 370.679L205.2 370.868C203.643 370.98 202.164 371.549 201.552 372.27C200.985 372.938 199.965 373.591 199.284 373.723C198.602 373.854 197.593 374.843 197.04 375.92C195.663 378.606 195.573 378.647 189.741 379.155C184.105 379.647 183.273 380.269 183.273 383.984C183.273 385.869 183.049 386.003 174.927 388.978C170.337 390.659 163.784 392.872 160.364 393.895C148.673 397.393 145.376 398.644 145.178 399.66C145.07 400.211 145.447 407.022 146.017 414.797C146.585 422.572 147.027 428.977 146.998 429.03C146.969 429.083 145.178 428.836 143.018 428.48C140.334 428.038 136.295 428.069 130.255 428.578C116.289 429.753 114.59 429.969 114.19 430.616C113.983 430.95 113.021 431.234 112.052 431.245C111.084 431.257 108.531 432.14 106.38 433.208C104.229 434.277 102.131 435.152 101.716 435.152C101.302 435.152 99.2441 435.912 97.1437 436.84C92.9009 438.717 82.9505 442.042 74.9454 444.258C67.483 446.325 67.5655 446.18 69.2208 454.272C69.9788 457.976 70.7832 463.6 71.009 466.771C71.2348 469.941 71.8658 474.949 72.4117 477.898C72.9569 480.848 73.6638 488.71 73.9826 495.37C74.4264 504.642 74.9546 509.089 76.2388 514.352C77.1617 518.132 78.1848 524.332 78.5127 528.13C78.8407 531.928 79.2982 535.787 79.5286 536.706C79.9318 538.311 79.81 538.392 76.4647 538.749C74.5495 538.954 71.2892 539.877 69.2208 540.8C67.1524 541.723 63.9124 542.756 62.0208 543.095C60.1292 543.434 57.4036 544.02 55.9636 544.398C49.9981 545.962 50.0452 546.002 48.1889 537.752C47.2778 533.702 46.3549 528.474 46.1389 526.134C45.6513 520.863 43.6935 509.79 41.5676 500.279C39.2119 489.741 37.4668 480.501 37.0335 476.264C36.8241 474.216 36.3718 471.802 36.0288 470.9L35.4044 469.259L23.4295 469.483C14.1761 469.657 10.8897 469.951 8.96924 470.779C7.60255 471.368 6.12982 471.805 5.69651 471.751C5.2632 471.696 3.80487 471.686 2.45455 471.729L0 471.806V1162.35V1852.9H720H1440V1095.35V337.796L1437.55 337.39C1436.2 337.167 1434.28 336.981 1433.29 336.977L1431.49 336.97L1431.51 331.897C1431.52 329.107 1431.8 323.29 1432.14 318.97C1432.64 312.659 1432.59 310.986 1431.89 310.461C1431.36 310.061 1424.06 309.812 1413.1 309.819C1395.68 309.832 1394.95 309.885 1387.64 311.672C1382.56 312.912 1378.83 313.449 1376.18 313.319C1370.91 313.061 1365.7 313.927 1364.51 315.261C1363.82 316.027 1361.99 327.513 1358.34 353.834C1355.48 374.449 1352.99 391.475 1352.79 391.668C1352.6 391.863 1349.91 391.667 1346.81 391.234L1341.18 390.446L1341.52 388.09C1341.7 386.794 1342.58 378.238 1343.46 369.075C1344.65 356.795 1344.88 352.297 1344.33 351.957C1343.92 351.703 1339.39 351.287 1334.27 351.031C1329.15 350.775 1324.62 350.354 1324.2 350.096C1323.2 349.479 1322.78 335.84 1323.61 331.178C1323.95 329.254 1324.09 327.534 1323.91 327.358C1323.74 327.181 1317.31 325.521 1309.63 323.667L1295.67 320.296L1273.75 320.313C1242.88 320.337 1220.79 320.936 1219.96 321.771C1219.39 322.334 1218.3 335.149 1218.15 343.024C1218.11 344.681 1217.9 344.824 1215.5 344.824C1214.07 344.824 1211.61 345.167 1210.05 345.586C1208.08 346.111 1205.9 346.162 1203 345.749L1198.8 345.152L1199.01 342.698C1199.23 340.258 1198.12 335.717 1197.28 335.599C1194.4 335.192 1185.62 335.031 1183.02 335.338C1179.21 335.787 1178.18 337.099 1178.18 341.526V344.055L1174.09 344.604L1170 345.152L1169.8 347.517L1169.6 349.881L1165.73 350.286C1163.61 350.509 1160.39 350.412 1158.6 350.071C1156.09 349.595 1154.79 349.673 1153.05 350.404C1151.79 350.928 1150.34 351.193 1149.81 350.992C1148.53 350.501 1148.25 351.115 1147.98 354.97C1147.72 358.59 1147.25 359.2 1144.71 359.215C1142.88 359.225 1142.18 360.242 1142.18 362.878C1142.18 364.445 1142.12 364.461 1135.72 364.461C1127.93 364.461 1127.59 364.725 1127.23 371.087C1127.01 375.04 1126.82 375.588 1125.69 375.588C1124.51 375.588 1124.44 375.271 1124.82 371.497C1125.96 360.384 1125.59 358.963 1121.56 358.963C1119.35 358.963 1119.27 358.882 1119.27 356.475V353.988L1115.67 353.879C1113.69 353.819 1111.57 353.745 1110.95 353.715C1110.33 353.685 1109.51 354.278 1109.14 355.032C1108.66 355.984 1108.09 356.275 1107.25 355.983C1106.14 355.592 1106.04 354.392 1105.85 339.557C1105.74 330.754 1105.63 322.226 1105.6 320.606C1105.58 318.986 1106 314.715 1106.55 311.115C1109.44 291.966 1110.31 277.618 1108.76 274.714C1108.38 274 1107.34 273.141 1106.46 272.805C1105.02 272.258 1104.9 271.931 1105.26 269.627C1105.78 266.383 1105.02 265.929 1098.2 265.439C1094.66 265.184 1093.09 265.304 1092.9 265.841C1092.71 266.411 1092.07 266.378 1090.41 265.715C1089.19 265.225 1086.27 264.541 1083.93 264.194C1081.49 263.832 1079.45 263.165 1079.15 262.631C1078.44 261.363 1074.18 261.401 1073.69 262.679C1073.48 263.219 1072.79 263.661 1072.15 263.661C1071.5 263.661 1070.81 263.219 1070.6 262.679C1070.19 261.617 1068.51 261.349 1067.95 262.257C1067.34 263.245 1066.05 291.018 1065.94 305.552C1065.88 313.292 1065.47 323.748 1065.03 328.788C1063.34 347.869 1062.97 351.598 1062.73 351.84C1062.59 351.977 1058.69 352.38 1054.06 352.736C1039.62 353.845 1041.08 353.462 1040.85 356.181C1040.65 358.542 1040.61 358.57 1037.73 358.57C1034.98 358.57 1034.83 358.48 1035.2 357.005C1035.45 356.041 1035.26 355.225 1034.73 354.88C1033.58 354.142 1027.36 352.882 1026.41 353.196C1026.01 353.332 1025.67 354.719 1025.67 356.28C1025.67 360.782 1025.33 361.19 1021.51 361.172C1019.66 361.164 1017.07 360.907 1015.76 360.602C1014.44 360.297 1013.04 360.252 1012.63 360.503C1012.23 360.754 1011.71 362.476 1011.49 364.331C1011.22 366.624 1010.76 367.802 1010.04 368.016C1009.46 368.189 1005.7 368.296 1001.7 368.253L994.416 368.175L994.608 350.118C994.715 340.186 995.137 324.992 995.547 316.352C995.958 307.712 996.35 299.023 996.419 297.043L996.545 293.443H994.313C992.365 293.443 991.969 293.735 991.204 295.734C990.436 297.743 990.363 296.537 990.611 285.915C990.766 279.255 990.692 272.499 990.447 270.901C990.049 268.317 989.766 267.936 987.873 267.446C985.612 266.862 985.395 266.216 985.699 260.996C985.831 258.727 984.634 256.85 983.314 257.256C982.98 257.359 981.965 256.583 981.057 255.533C978.993 253.146 977.465 253.593 976.871 256.76C976.374 259.41 975.301 259.904 970.706 259.6C967.885 259.414 967.748 259.491 966.98 261.697C966.525 263.006 966.161 267.636 966.133 272.497C966.106 277.177 965.644 284.835 965.107 289.515C964.57 294.195 963.941 304.256 963.709 311.874C963.367 323.078 963.119 325.659 962.407 325.386C961.851 325.172 961.527 323.967 961.527 322.111C961.527 319.662 961.295 319.114 960.128 318.809C958.768 318.454 958.742 318.233 959.174 311.003C959.695 302.29 959.253 298.974 957.511 298.518C956.511 298.257 956.291 297.563 956.291 294.675C956.291 292.029 956.054 291.152 955.339 291.152C954.62 291.152 954.34 290.077 954.194 286.758L954 282.364L950.4 281.578C948.42 281.145 945.42 280.344 943.734 279.798C939.892 278.552 939.176 279.202 938.751 284.319C938.545 286.804 938.178 287.879 937.535 287.879C937.028 287.879 936.431 288.394 936.207 289.025C935.984 289.655 935.374 290.668 934.852 291.277C934.142 292.106 933.848 294.812 933.68 302.077C933.557 307.408 932.941 322.288 932.312 335.144L931.169 358.518L926.548 358.707C919.873 358.982 919.316 358.292 919.895 350.461C920.136 347.181 920.61 339.637 920.947 333.697C921.283 327.757 921.75 322.233 921.984 321.421C922.495 319.645 921.188 317.834 919.708 318.267C919.128 318.436 916.004 318.657 912.764 318.758C909.524 318.859 906.656 319.242 906.392 319.61C906.127 319.978 905.903 322.783 905.893 325.843C905.873 332.738 905.312 336.315 904.255 336.315C902.957 336.315 902.634 332.143 903.427 325.65C903.831 322.336 904.182 317.563 904.208 315.043L904.255 310.461L896.727 310.701C892.587 310.833 889.059 311.072 888.887 311.232C888.715 311.392 888.42 313.052 888.233 314.919C887.922 318.003 887.731 318.334 886.158 318.516C884.021 318.764 883.669 319.909 883.608 326.824C883.582 329.704 883.297 333.239 882.973 334.679C882.561 336.516 882.426 334.001 882.52 326.243L882.654 315.188L878.4 313.941C862.845 309.382 861.438 309.188 850.806 310.138L841.418 310.975L841.245 329.7C841.15 339.999 840.855 351.812 840.59 355.952C840.074 364.029 840.276 363.699 836.414 362.782C834.814 362.402 834.649 362.563 834.262 364.888C834.031 366.273 833.567 372.266 833.23 378.206C832.893 384.146 832.282 392.688 831.872 397.188C831.42 402.147 831.269 411.236 831.49 420.261L831.853 435.152H830.008C828.503 435.152 828.095 434.808 827.789 433.28L827.415 431.408L818.871 431.479L810.327 431.55V433.109C810.327 434.581 810.154 434.648 807.222 434.317C805.514 434.125 803.59 434.249 802.947 434.594C801.95 435.127 801.825 434.996 802.106 433.713C802.486 431.982 802.716 428.77 802.572 427.218C802.472 426.152 802.189 426.099 787.091 424.339C785.291 424.129 783.229 423.899 782.509 423.827C781.317 423.709 781.2 424.09 781.2 428.082C781.2 432.52 780.814 433.136 778.002 433.179C777.455 433.187 777.729 420.701 778.663 403.059C779.141 394.026 779.053 393.891 772.337 393.411C769.813 393.23 767.536 392.754 767.274 392.354C767.013 391.952 766.653 384.114 766.473 374.934L766.145 358.243H762.545H758.945L758.913 323.552L758.88 288.861L757.496 288.659C756.371 288.495 756.05 287.882 755.781 285.387C755.598 283.697 755.452 281.726 755.457 281.006C755.461 280.286 755.268 270.272 755.027 258.752C754.787 247.232 754.532 226.024 754.462 211.624C754.391 197.079 754.066 185.017 753.732 184.484C753.401 183.956 753.062 175.414 752.977 165.502C752.893 155.59 752.802 146.828 752.776 146.032C752.749 145.236 752.075 143.977 751.277 143.233C750.036 142.077 749.772 140.964 749.448 135.517C749.24 132.016 749.295 128.121 749.569 126.861C749.947 125.13 749.822 124.384 749.061 123.809C748.507 123.391 747.851 121.624 747.603 119.882C747.155 116.723 747.148 116.715 744.448 116.518L741.742 116.32L741.277 112.59C740.79 108.678 740.231 107.906 737.88 107.889C736.81 107.882 736.398 107.426 736.243 106.079C736.097 104.803 735.43 103.993 733.955 103.297C732.178 102.459 731.761 101.787 731.114 98.7154C730.696 96.7354 730.16 92.759 729.922 89.879C729.685 86.999 729.234 84.2434 728.919 83.7558C728.605 83.2681 728.292 75.6944 728.224 66.9248C728.115 52.9961 727.96 50.8256 726.995 49.76C726.388 49.0884 725.891 47.8454 725.891 46.9971C725.891 46.1482 725.251 44.773 724.469 43.9404C723.118 42.5018 723.034 41.7274 722.812 28.516C722.494 9.64353 721.845 0.381084 720.819 0.0407203C720.368 -0.107861 719.874 0.163109 719.718 0.642891ZM720.478 33.0828C720.336 34.4404 720.218 33.4899 720.215 30.9699C720.212 28.4499 720.328 27.3385 720.473 28.501C720.617 29.6628 720.619 31.7247 720.478 33.0828ZM720.451 42.9154C720.287 43.5457 720.152 43.0299 720.152 41.7699C720.152 40.5099 720.287 39.9942 720.451 40.6245C720.616 41.2548 720.616 42.2851 720.451 42.9154ZM994.051 298.843C993.887 299.473 993.752 298.957 993.752 297.697C993.752 296.437 993.887 295.921 994.051 296.552C994.216 297.182 994.216 298.212 994.051 298.843Z" fill="#252762"/>
</svg>
